<?xml version="1.0" encoding="UTF-8"?>
<!-- Generator: visioncortex VTracer 0.6.4 -->
<svg version="1.1" xmlns="http://www.w3.org/2000/svg" width="1080" height="1080">
<path d="M0 0 C356.4 0 712.8 0 1080 0 C1080 356.4 1080 712.8 1080 1080 C723.6 1080 367.2 1080 0 1080 C0 723.6 0 367.2 0 0 Z " fill="#000000" transform="translate(0,0)"/>
<path d="M0 0 C21.12 0 42.24 0 64 0 C63.01 2.97 62.02 5.94 61 9 C60.568 12.428 60.568 12.428 60.633 15.788 C60.624 17.704 60.624 17.704 60.616 19.658 C60.625 21.045 60.634 22.432 60.644 23.82 C60.643 25.302 60.641 26.785 60.637 28.267 C60.632 32.269 60.646 36.27 60.663 40.272 C60.678 44.468 60.677 48.663 60.678 52.859 C60.681 59.897 60.696 66.935 60.719 73.973 C60.748 83.007 60.758 92.04 60.762 101.074 C60.766 108.849 60.779 116.623 60.793 124.398 C60.797 126.894 60.8 129.391 60.803 131.888 C60.807 135.807 60.818 139.726 60.832 143.646 C60.837 145.084 60.839 146.522 60.84 147.961 C60.842 149.923 60.851 151.885 60.86 153.847 C60.864 155.494 60.864 155.494 60.869 157.175 C60.983 159.624 61.29 161.665 62 164 C64.31 164.66 66.62 165.32 69 166 C64.277 171.7 58.233 175.336 50.797 176.279 C37.058 177.28 27.029 175.35 16.332 166.27 C9.876 159.986 6.294 153.912 5 145 C1.634 148.254 -1.292 151.591 -4.125 155.312 C-11.739 164.679 -22.855 172.792 -35 175 C-51.252 176.128 -64.451 172.781 -77.215 162.156 C-92.082 148.23 -99.354 128.033 -100.262 108.094 C-100.894 86.564 -95.823 66.289 -81 50 C-80.043 48.94 -80.043 48.94 -79.066 47.859 C-70.831 39.191 -60.869 33.21 -48.707 32.797 C-33.354 32.55 -21.552 34.752 -9.875 45.562 C-6.641 49 -4.173 52.744 -1.758 56.777 C-1.394 57.377 -1.03 57.977 -0.655 58.596 C0.234 60.061 1.118 61.53 2 63 C2.051 55.153 2.086 47.306 2.11 39.459 C2.119 36.79 2.134 34.122 2.151 31.454 C2.175 27.614 2.186 23.774 2.195 19.934 C2.206 18.745 2.216 17.556 2.227 16.331 C2.227 15.211 2.227 14.09 2.227 12.935 C2.231 11.956 2.236 10.977 2.241 9.968 C2.038 6.268 2.038 6.268 0 0 Z " fill="#FBFBFB" transform="translate(965,433)"/>
<path d="M0 0 C21.12 0 42.24 0 64 0 C63.01 3.96 62.02 7.92 61 12 C60.567 15.681 60.567 15.681 60.612 19.028 C60.602 20.283 60.593 21.537 60.582 22.83 C60.587 24.176 60.591 25.523 60.596 26.869 C60.59 28.321 60.583 29.772 60.575 31.224 C60.557 35.129 60.558 39.033 60.564 42.938 C60.567 46.206 60.561 49.474 60.555 52.743 C60.541 60.449 60.543 68.156 60.554 75.863 C60.565 83.806 60.551 91.748 60.525 99.69 C60.502 106.527 60.496 113.364 60.502 120.201 C60.505 124.277 60.503 128.353 60.485 132.429 C60.47 136.255 60.474 140.081 60.493 143.907 C60.496 145.309 60.493 146.711 60.483 148.114 C60.47 150.03 60.484 151.945 60.499 153.861 C60.499 154.932 60.499 156.003 60.499 157.107 C61.124 160.718 62.468 162.398 65 165 C67.129 165.87 67.129 165.87 69 166 C69 166.66 69 167.32 69 168 C66.516 169.691 66.516 169.691 63.25 171.562 C62.183 172.183 61.115 172.803 60.016 173.441 C51.675 177.752 39.868 177.206 30.844 175.352 C19.854 171.283 12.265 163.121 6.902 152.91 C5.635 150.122 5 148.086 5 145 C4.34 145 3.68 145 3 145 C2.677 146.038 2.677 146.038 2.348 147.098 C0.611 150.838 -1.757 153.45 -4.562 156.438 C-5.1 157.013 -5.638 157.588 -6.193 158.181 C-15.096 167.484 -26.709 174.066 -39.691 175.371 C-55.467 175.642 -67.533 170.805 -79.176 159.977 C-93.965 144.527 -100.408 122.971 -100.301 101.972 C-99.823 81.398 -92.956 62.17 -78.562 47.125 C-66.368 35.539 -54.558 32.404 -38.117 32.648 C-29.16 33.042 -21.054 36.458 -14 42 C-13.464 42.383 -12.928 42.766 -12.375 43.16 C-5.218 48.64 -0.212 56.667 3 65 C3.051 57.456 3.086 49.912 3.11 42.368 C3.12 39.804 3.134 37.239 3.151 34.675 C3.175 30.981 3.187 27.288 3.195 23.594 C3.206 22.454 3.216 21.314 3.227 20.14 C3.228 12.831 2.313 6.938 0 0 Z " fill="#FCFCFC" transform="translate(143,433)"/>
<path d="M0 0 C1.361 1.137 2.716 2.283 4.062 3.438 C4.675 3.907 5.287 4.376 5.918 4.859 C17.09 13.64 23.703 28.001 27.062 41.438 C-3.298 41.438 -33.658 41.438 -64.938 41.438 C-63.804 58.436 -60.708 73.434 -47.938 85.438 C-35.349 95.166 -22.74 98.843 -6.938 97.438 C6.259 95.357 16.842 88.905 25.062 78.438 C25.393 79.097 25.722 79.757 26.062 80.438 C17.829 99.86 1.329 113.467 -17.297 122.379 C-37.134 130.331 -58.327 131.21 -78.176 123.117 C-85.242 119.831 -91.139 115.615 -96.938 110.438 C-97.71 109.759 -98.482 109.081 -99.277 108.383 C-110.79 97.638 -119.256 81.94 -120.06 66.005 C-120.683 44.593 -117.379 26.256 -102.98 9.602 C-76.463 -18.488 -31.214 -23.792 0 0 Z " fill="#FCFCFC" transform="translate(827.9375,479.5625)"/>
<path d="M0 0 C1.519 -0.016 3.039 -0.043 4.558 -0.082 C24.379 -0.581 41.163 5.914 55.996 19.35 C65.446 28.391 72.661 39.636 75.996 52.35 C75.996 53.34 75.996 54.33 75.996 55.35 C45.636 55.35 15.276 55.35 -16.004 55.35 C-13.821 73.904 -10.79 89.16 3.996 101.35 C16.822 110.357 30.539 113.207 46.058 110.725 C56.976 108.159 65.173 102.143 72.996 94.35 C73.582 93.766 74.169 93.182 74.773 92.581 C75.378 91.971 75.378 91.971 75.996 91.35 C70.118 110.611 55.115 123.918 37.996 133.35 C19.461 142.649 -1.429 145.878 -21.477 139.674 C-38.884 133.139 -53.962 122.361 -62.59 105.491 C-70.882 87.074 -74.662 68.1 -68.004 48.35 C-64.295 39.22 -59.656 30.671 -53.004 23.35 C-52.351 22.605 -51.697 21.86 -51.024 21.092 C-37.243 6.283 -19.684 0.155 0 0 Z " fill="#FCFCFC" transform="translate(288.004150390625,465.64990234375)"/>
<path d="M0 0 C21.12 0 42.24 0 64 0 C63.01 2.97 62.02 5.94 61 9 C60.568 12.428 60.568 12.428 60.633 15.788 C60.627 17.065 60.621 18.342 60.616 19.658 C60.625 21.045 60.634 22.432 60.644 23.82 C60.643 25.302 60.641 26.785 60.637 28.267 C60.632 32.269 60.646 36.27 60.663 40.272 C60.678 44.468 60.677 48.663 60.678 52.859 C60.681 59.897 60.696 66.935 60.719 73.973 C60.748 83.007 60.758 92.04 60.762 101.074 C60.766 108.849 60.779 116.623 60.793 124.398 C60.797 126.894 60.8 129.391 60.803 131.888 C60.807 135.807 60.818 139.726 60.832 143.646 C60.837 145.084 60.839 146.522 60.84 147.961 C60.842 149.923 60.851 151.885 60.86 153.847 C60.863 154.945 60.866 156.043 60.869 157.175 C60.983 159.624 61.29 161.665 62 164 C64.31 164.66 66.62 165.32 69 166 C64.277 171.7 58.233 175.336 50.797 176.279 C37.066 177.279 26.996 175.364 16.324 166.25 C5.903 156.161 2.67 143.618 2.414 129.521 C2.394 127.235 2.392 124.95 2.391 122.664 C2.376 121.047 2.359 119.431 2.341 117.814 C2.297 113.609 2.277 109.404 2.262 105.199 C2.242 100.888 2.2 96.577 2.16 92.266 C2.085 83.844 2.035 75.422 2 67 C2.33 67 2.66 67 3 67 C3.077 59.387 3.129 51.774 3.165 44.161 C3.18 41.575 3.2 38.989 3.226 36.404 C3.263 32.67 3.28 28.937 3.293 25.203 C3.308 24.062 3.324 22.921 3.34 21.745 C3.34 20.645 3.34 19.545 3.341 18.411 C3.347 17.461 3.354 16.51 3.361 15.531 C2.822 10.262 1.285 5.139 0 0 Z " fill="#FDFDFD" transform="translate(965,433)"/>
<path d="M0 0 C21.12 0 42.24 0 64 0 C63.01 3.96 62.02 7.92 61 12 C60.567 15.681 60.567 15.681 60.612 19.028 C60.602 20.283 60.593 21.537 60.582 22.83 C60.587 24.176 60.591 25.523 60.596 26.869 C60.59 28.321 60.583 29.772 60.575 31.224 C60.557 35.129 60.558 39.033 60.564 42.938 C60.567 46.206 60.561 49.474 60.555 52.743 C60.541 60.449 60.543 68.156 60.554 75.863 C60.565 83.806 60.551 91.748 60.525 99.69 C60.502 106.527 60.496 113.364 60.502 120.201 C60.505 124.277 60.503 128.353 60.485 132.429 C60.47 136.255 60.474 140.081 60.493 143.907 C60.496 145.309 60.493 146.711 60.483 148.114 C60.47 150.03 60.484 151.945 60.499 153.861 C60.499 154.932 60.499 156.003 60.499 157.107 C61.124 160.718 62.468 162.398 65 165 C67.129 165.87 67.129 165.87 69 166 C69 166.66 69 167.32 69 168 C66.516 169.691 66.516 169.691 63.25 171.562 C62.183 172.183 61.115 172.803 60.016 173.441 C51.675 177.752 39.868 177.206 30.844 175.352 C20.025 171.346 11.841 163.203 6.99 152.842 C3.675 144.757 3.396 137.202 3.391 128.559 C3.376 127.05 3.359 125.541 3.341 124.033 C3.297 120.001 3.277 115.97 3.262 111.939 C3.242 107.742 3.198 103.545 3.158 99.348 C3.015 83.376 2.983 67.403 3.02 51.43 C3.022 50.072 3.025 48.714 3.027 47.356 C3.041 41.078 3.069 34.801 3.124 28.523 C3.136 26.293 3.148 24.062 3.16 21.832 C3.174 20.843 3.187 19.853 3.201 18.834 C3.226 12.033 2.155 6.466 0 0 Z " fill="#FEFEFE" transform="translate(143,433)"/>
<path d="M0 0 C0.679 0.417 1.358 0.834 2.058 1.264 C2.953 1.809 3.848 2.353 4.77 2.914 C5.655 3.455 6.54 3.996 7.452 4.553 C16.738 9.826 29.628 9.368 39.738 6.711 C43.65 5.481 47.533 4.173 51.398 2.805 C54 2 54 2 57 2 C57.33 9.26 57.66 16.52 58 24 C59.011 22.309 60.021 20.618 61.062 18.875 C66.029 11.121 71.882 5.394 81 3 C90.51 1.909 99.246 2.621 107.027 8.543 C113.393 14.424 115.957 20.49 117 29 C99.033 38.525 99.033 38.525 90 43.125 C88.907 43.684 87.814 44.244 86.688 44.82 C84 46 84 46 81 46 C80.83 45.059 80.66 44.118 80.484 43.148 C78.837 33.848 78.837 33.848 74 26 C70.798 24.399 67.474 24.501 64 25 C61.19 26.794 59.491 28.019 58 31 C57.896 34.111 57.853 37.2 57.855 40.312 C57.851 41.278 57.848 42.244 57.845 43.239 C57.835 46.446 57.833 49.653 57.832 52.859 C57.829 55.084 57.825 57.309 57.822 59.534 C57.816 64.204 57.814 68.875 57.815 73.546 C57.815 79.529 57.801 85.512 57.784 91.496 C57.773 96.094 57.771 100.692 57.771 105.29 C57.77 107.496 57.766 109.702 57.758 111.907 C57.748 114.995 57.751 118.083 57.757 121.171 C57.751 122.081 57.746 122.992 57.74 123.93 C57.768 129.503 58.473 133.945 61 139 C39.55 139 18.1 139 -4 139 C-3.01 135.7 -2.02 132.4 -1 129 C-0.562 125.827 -0.562 125.827 -0.601 122.9 C-0.582 121.251 -0.582 121.251 -0.563 119.569 C-0.565 118.399 -0.566 117.229 -0.568 116.023 C-0.557 114.763 -0.547 113.504 -0.537 112.206 C-0.509 108.783 -0.5 105.36 -0.494 101.937 C-0.484 98.348 -0.458 94.76 -0.434 91.171 C-0.39 84.389 -0.362 77.607 -0.339 70.825 C-0.311 63.099 -0.268 55.372 -0.222 47.645 C-0.13 31.763 -0.058 15.882 0 0 Z " fill="#FCFCFC" transform="translate(379,469)"/>
<path d="M0 0 C21.12 0 42.24 0 64 0 C64.495 6.435 64.495 6.435 65 13 C65.779 16.188 66.588 19.16 67.625 22.25 C69.982 29.583 72.152 36.952 74.207 44.375 C74.823 46.588 75.439 48.8 76.056 51.013 C76.533 52.73 76.533 52.73 77.02 54.482 C78.663 60.381 80.318 66.276 81.973 72.172 C82.652 74.592 83.331 77.013 84.01 79.434 C84.348 80.639 84.686 81.844 85.034 83.085 C85.722 85.536 86.409 87.986 87.096 90.436 C88.117 94.077 89.138 97.718 90.16 101.359 C90.649 103.105 90.649 103.105 91.148 104.885 C92.689 110.374 94.243 115.859 95.832 121.334 C96.255 122.796 96.255 122.796 96.686 124.288 C97.211 126.095 97.739 127.902 98.271 129.708 C98.5 130.499 98.73 131.291 98.967 132.106 C99.167 132.791 99.368 133.475 99.575 134.18 C100 136 100 136 100 139 C100.66 139 101.32 139 102 139 C102.122 137.469 102.122 137.469 102.246 135.906 C103.077 129.263 105.178 122.904 107.062 116.5 C107.444 115.188 107.825 113.875 108.205 112.562 C109.131 109.373 110.063 106.186 111 103 C112.386 107.446 111.179 110.921 109.91 115.266 C109.713 115.969 109.515 116.673 109.311 117.398 C108.572 120.018 107.816 122.634 107.062 125.25 C105.392 131.107 103.721 136.965 102 143 C82.2 143 62.4 143 42 143 C40.481 138.444 39.098 133.903 37.828 129.277 C37.625 128.544 37.422 127.81 37.213 127.054 C36.781 125.49 36.349 123.926 35.918 122.362 C34.793 118.278 33.662 114.196 32.531 110.113 C32.31 109.313 32.088 108.513 31.86 107.689 C30.188 101.658 28.483 95.638 26.75 89.625 C24.227 80.864 21.822 72.072 19.434 63.273 C17.537 56.289 15.61 49.314 13.656 42.345 C13.196 40.7 12.738 39.055 12.281 37.409 C8.749 24.685 4.909 12.273 0 0 Z " fill="#FBFBFB" transform="translate(568,465)"/>
<path d="M0 0 C0.66 0 1.32 0 2 0 C2 0.66 2 1.32 2 2 C2.736 2.286 3.472 2.572 4.23 2.867 C7 4 7 4 9.113 5.07 C20.651 10.603 34.768 8.843 46.539 4.778 C47.795 4.327 49.05 3.873 50.305 3.418 C50.95 3.185 51.596 2.953 52.261 2.713 C53.842 2.144 55.421 1.572 57 1 C57.002 1.663 57.005 2.325 57.007 3.008 C57.066 19.15 57.142 35.293 57.236 51.435 C57.281 59.242 57.32 67.048 57.346 74.854 C57.369 81.661 57.403 88.467 57.449 95.273 C57.473 98.875 57.491 102.477 57.498 106.079 C57.505 110.105 57.535 114.132 57.568 118.158 C57.566 119.345 57.565 120.532 57.563 121.755 C57.576 122.86 57.588 123.964 57.601 125.103 C57.606 126.054 57.61 127.005 57.615 127.985 C58.002 131.938 58.002 131.938 61 139 C39.55 139 18.1 139 -4 139 C-3.01 135.7 -2.02 132.4 -1 129 C-0.562 125.827 -0.562 125.827 -0.601 122.9 C-0.582 121.251 -0.582 121.251 -0.563 119.569 C-0.565 118.399 -0.566 117.229 -0.568 116.023 C-0.557 114.763 -0.547 113.504 -0.537 112.206 C-0.509 108.783 -0.5 105.36 -0.494 101.937 C-0.484 98.348 -0.458 94.76 -0.434 91.171 C-0.39 84.389 -0.362 77.607 -0.339 70.825 C-0.311 63.099 -0.268 55.372 -0.222 47.645 C-0.13 31.763 -0.058 15.882 0 0 Z " fill="#FDFDFD" transform="translate(503,469)"/>
<path d="M0 0 C2.191 1.67 4.288 3.41 6.379 5.203 C6.991 5.672 7.604 6.142 8.234 6.625 C19.407 15.405 26.02 29.766 29.379 43.203 C-0.981 43.203 -31.341 43.203 -62.621 43.203 C-62.621 46.503 -62.621 49.803 -62.621 53.203 C-62.951 53.203 -63.281 53.203 -63.621 53.203 C-63.723 46.55 -63.793 39.898 -63.841 33.245 C-63.861 30.985 -63.888 28.725 -63.923 26.465 C-63.972 23.203 -63.994 19.942 -64.012 16.68 C-64.032 15.681 -64.053 14.683 -64.074 13.654 C-64.076 7.032 -63.228 0.907 -59.621 -4.797 C-57.482 -6.072 -57.482 -6.072 -55.621 -6.797 C-55.951 -8.117 -56.281 -9.437 -56.621 -10.797 C-57.941 -11.127 -59.261 -11.457 -60.621 -11.797 C-39.656 -16.017 -17.639 -12.092 0 0 Z " fill="#F5F5F5" transform="translate(825.62109375,477.796875)"/>
<path d="M0 0 C0.924 0.005 1.848 0.01 2.8 0.015 C21.94 0.496 38.629 10.551 51.625 24.125 C58.728 32.299 67 44.354 67 55.5 C36.64 55.5 6.28 55.5 -25 55.5 C-25 57.48 -25 59.46 -25 61.5 C-25.33 61.5 -25.66 61.5 -26 61.5 C-26.074 55.523 -26.129 49.546 -26.165 43.568 C-26.18 41.537 -26.2 39.506 -26.226 37.475 C-26.263 34.546 -26.28 31.617 -26.293 28.688 C-26.308 27.788 -26.324 26.889 -26.34 25.962 C-26.342 18.808 -25.095 12.281 -20.25 6.688 C-19.801 6.145 -19.353 5.602 -18.891 5.043 C-13.126 0.339 -7.16 -0.051 0 0 Z " fill="#F9F9F9" transform="translate(297,465.5)"/>
<path d="M0 0 C4.188 3.617 6.735 7.869 7.75 13.375 C7.862 15.64 7.919 17.908 7.943 20.176 C7.955 21.188 7.955 21.188 7.968 22.222 C7.992 24.449 8.009 26.675 8.023 28.902 C8.029 29.665 8.034 30.427 8.04 31.213 C8.066 35.245 8.086 39.277 8.1 43.309 C8.113 46.643 8.141 49.977 8.182 53.31 C8.231 57.341 8.256 61.372 8.263 65.404 C8.27 66.937 8.285 68.471 8.309 70.005 C8.341 72.152 8.341 74.298 8.333 76.445 C8.342 77.665 8.35 78.886 8.358 80.143 C7.579 84.285 5.951 85.73 2.75 88.375 C-2.517 91.535 -9.033 91.142 -14.84 89.758 C-23.772 86.647 -29.141 80.911 -33.562 72.688 C-38.156 62.612 -39.509 53.171 -39.625 42.188 C-39.646 40.816 -39.646 40.816 -39.667 39.417 C-39.574 26.097 -34.447 14 -25.371 4.289 C-18.065 -2.304 -8.984 -4.492 0 0 Z " fill="#030303" transform="translate(139.25,492.625)"/>
<path d="M0 0 C4.469 4.033 7.358 7.236 7.768 13.404 C7.823 15.312 7.823 15.312 7.879 17.259 C7.911 18.313 7.911 18.313 7.943 19.389 C8.155 26.724 8.305 34.061 8.45 41.398 C8.52 44.878 8.611 48.357 8.718 51.836 C8.848 56.04 8.943 60.245 9.013 64.451 C9.046 66.051 9.091 67.651 9.148 69.251 C9.581 81.729 9.581 81.729 7.074 85.627 C1.487 90.6 -4.276 90.686 -11.438 90.312 C-18.869 89.384 -23.517 84.615 -28.438 79.312 C-30.898 76.144 -32.741 72.944 -34.438 69.312 C-34.85 68.44 -35.263 67.567 -35.688 66.668 C-40.877 53.206 -40.871 34.425 -35.691 20.961 C-31.419 11.937 -26.294 3.675 -17 -0.883 C-11.242 -2.691 -5.416 -2.659 0 0 Z " fill="#010101" transform="translate(960.4375,492.6875)"/>
<path d="M0 0 C6.35 4.688 10.425 11.271 12 19 C12.924 27.634 11.021 35.326 5.75 42.312 C-0.364 48.288 -7.408 52.243 -16.062 52.5 C-24.379 52.34 -31.133 49.667 -37.199 43.914 C-42.996 36.988 -45.679 29.509 -45.344 20.477 C-44.255 12.631 -39.813 6.212 -34 1 C-22.491 -6.835 -12.202 -6.73 0 0 Z " fill="#FBFBFB" transform="translate(548,409)"/>
<path d="M0 0 C5.117 2.716 9.063 6.809 10.898 12.316 C10.984 13.652 11.016 14.991 11.012 16.329 C11.012 17.129 11.012 17.93 11.012 18.755 C11.007 19.614 11.001 20.474 10.996 21.359 C10.995 22.243 10.993 23.127 10.992 24.037 C10.986 26.859 10.974 29.682 10.961 32.504 C10.956 34.417 10.951 36.331 10.947 38.244 C10.937 42.935 10.918 47.626 10.898 52.316 C-1.312 52.316 -13.522 52.316 -26.102 52.316 C-26.194 46.747 -26.273 41.181 -26.321 35.611 C-26.341 33.719 -26.369 31.826 -26.403 29.934 C-26.452 27.206 -26.475 24.479 -26.492 21.75 C-26.513 20.911 -26.533 20.072 -26.555 19.208 C-26.557 12.696 -24.995 8.472 -20.504 3.574 C-14.47 -1.092 -7.416 -2.412 0 0 Z " fill="#020202" transform="translate(298.1015625,467.68359375)"/>
<path d="M0 0 C4.004 2.765 6.93 5.77 9.625 9.812 C9.866 11.768 9.866 11.768 9.852 14.009 C9.852 14.849 9.852 15.69 9.852 16.556 C9.841 17.459 9.831 18.362 9.82 19.293 C9.817 20.221 9.815 21.149 9.812 22.105 C9.801 25.07 9.775 28.035 9.75 31 C9.74 33.01 9.731 35.02 9.723 37.029 C9.702 41.957 9.663 46.885 9.625 51.812 C-2.255 51.812 -14.135 51.812 -26.375 51.812 C-26.49 46.119 -26.59 40.429 -26.65 34.735 C-26.675 32.801 -26.709 30.867 -26.752 28.933 C-26.813 26.143 -26.841 23.353 -26.863 20.562 C-26.889 19.707 -26.915 18.851 -26.941 17.97 C-26.944 11.762 -25.377 7.595 -21.375 2.812 C-15.297 -2.511 -7.415 -2.609 0 0 Z " fill="#020202" transform="translate(789.375,468.1875)"/>
<path d="M0 0 C14.52 0 29.04 0 44 0 C41.745 11.276 41.745 11.276 40.738 15.164 C40.51 16.046 40.282 16.928 40.047 17.836 C39.805 18.756 39.562 19.677 39.312 20.625 C38.924 22.11 38.924 22.11 38.527 23.625 C36.366 31.799 34.009 39.908 31.607 48.014 C29.598 54.831 27.754 61.676 26 68.562 C23.043 80.158 19.579 91.583 16 103 C15.67 103 15.34 103 15 103 C15.608 97.176 16.716 91.727 18.25 86.082 C18.468 85.262 18.686 84.441 18.911 83.596 C19.602 81 20.301 78.406 21 75.812 C21.698 73.208 22.394 70.602 23.089 67.997 C23.52 66.382 23.953 64.768 24.388 63.155 C28.211 48.89 28.185 35.472 21.125 22.062 C16.851 14.85 11.913 9.924 5.305 4.832 C3 3 3 3 0 0 Z " fill="#EFEFEF" transform="translate(665,465)"/>
<path d="M0 0 C0.975 0.005 1.949 0.009 2.953 0.014 C5.344 0.025 7.734 0.042 10.125 0.062 C9.135 0.392 8.145 0.723 7.125 1.062 C7.125 1.723 7.125 2.382 7.125 3.062 C6.172 3.039 5.22 3.016 4.238 2.992 C2.984 2.974 1.73 2.956 0.438 2.938 C-0.804 2.914 -2.045 2.891 -3.324 2.867 C-6.687 3.052 -8.874 3.605 -11.875 5.062 C-12.205 4.072 -12.535 3.082 -12.875 2.062 C-14.89 1.329 -14.89 1.329 -16.875 1.062 C-11.24 -0.142 -5.73 -0.05 0 0 Z " fill="#B2B2B2" transform="translate(781.875,464.9375)"/>
<path d="M0 0 C0.33 0.66 0.66 1.32 1 2 C-0.109 4.566 -0.109 4.566 -1.75 7.562 C-2.547 9.049 -2.547 9.049 -3.359 10.566 C-5 13 -5 13 -8 14 C-8.99 13.67 -9.98 13.34 -11 13 C-13.143 13.389 -13.143 13.389 -15 14 C-14.34 13.484 -13.68 12.969 -13 12.438 C-10.574 10.467 -8.182 8.475 -5.812 6.438 C-4.801 5.569 -4.801 5.569 -3.77 4.684 C-1.79 2.924 -1.79 2.924 0 0 Z " fill="#E5E5E5" transform="translate(853,558)"/>
<path d="M0 0 C0.66 0 1.32 0 2 0 C2.838 1.622 3.67 3.248 4.5 4.875 C4.964 5.78 5.428 6.685 5.906 7.617 C7 10 7 10 7 12 C6.34 12 5.68 12 5 12 C2 7.615 2 7.615 2 5 C0.68 4.34 -0.64 3.68 -2 3 C-1.34 2.01 -0.68 1.02 0 0 Z " fill="#DDDDDD" transform="translate(140,490)"/>
<path d="M0 0 C0.66 0 1.32 0 2 0 C6.062 6.4 6.062 6.4 5.75 9.438 C5.503 9.953 5.255 10.469 5 11 C3.763 9.503 2.526 8.005 1.289 6.508 C0.247 5.289 -0.867 4.133 -2 3 C-1.34 2.34 -0.68 1.68 0 1 C0 0.67 0 0.34 0 0 Z " fill="#DFDFDF" transform="translate(961,489)"/>
<path d="M0 0 C0.33 0.66 0.66 1.32 1 2 C0.004 4.383 0.004 4.383 -1.438 7.125 C-1.911 8.035 -2.384 8.945 -2.871 9.883 C-3.244 10.581 -3.616 11.28 -4 12 C-4.33 11.01 -4.66 10.02 -5 9 C-5.66 8.67 -6.32 8.34 -7 8 C-4.69 5.36 -2.38 2.72 0 0 Z " fill="#D0D0D0" transform="translate(363,557)"/>
<path d="M0 0 C0.33 0.99 0.66 1.98 1 3 C1.99 3 2.98 3 4 3 C4 3.66 4 4.32 4 5 C2.039 6.389 0.038 7.726 -2 9 C-1.125 2.25 -1.125 2.25 0 0 Z " fill="#E0E0E0" transform="translate(439,489)"/>
<path d="M0 0 C1.98 0 3.96 0 6 0 C6 1.32 6 2.64 6 4 C4.02 4.99 4.02 4.99 2 6 C1.34 4.02 0.68 2.04 0 0 Z " fill="#F1F1F1" transform="translate(569,466)"/>
<path d="M0 0 C0.66 0.66 1.32 1.32 2 2 C1.216 2.763 0.433 3.526 -0.375 4.312 C-3.073 6.909 -3.073 6.909 -5 10 C-5.66 9.67 -6.32 9.34 -7 9 C-5.65 4.581 -3.739 2.657 0 0 Z " fill="#D4D4D4" transform="translate(968,576)"/>
<path d="M0 0 C1.32 0 2.64 0 4 0 C4.99 1.98 5.98 3.96 7 6 C4 6 4 6 1.812 4.125 C0 2 0 2 0 0 Z " fill="#0F0F0F" transform="translate(342,482)"/>
<path d="M0 0 C2.494 1.204 4.681 2.454 7 4 C6.01 4.495 6.01 4.495 5 5 C2.64 4.064 0.304 3.067 -2 2 C-1.34 1.34 -0.68 0.68 0 0 Z " fill="#2F2F2F" transform="translate(1029,595)"/>
<path d="M0 0 C0.33 0.99 0.66 1.98 1 3 C-2.929 3 -6.199 1.997 -10 1 C-10 0.67 -10 0.34 -10 0 C-3.152 -1.401 -3.152 -1.401 0 0 Z " fill="#CACACA" transform="translate(455,492)"/>
<path d="M0 0 C1.32 1.32 2.64 2.64 4 4 C3.01 4.66 2.02 5.32 1 6 C0.01 4.68 -0.98 3.36 -2 2 C-1.34 1.34 -0.68 0.68 0 0 Z " fill="#F3F3F3" transform="translate(829,481)"/>
<path d="M0 0 C0.99 0.66 1.98 1.32 3 2 C2.34 3.32 1.68 4.64 1 6 C0.01 6 -0.98 6 -2 6 C-1.34 4.02 -0.68 2.04 0 0 Z " fill="#0C0C0C" transform="translate(1029,432)"/>
</svg>
